# xmcd
#
# Track frame offsets: 
#        150
#        13593
#        29329
#        45733
#        61079
#        74195
#        87259
#        104945
#        118842
#        133184
#        152040
#        169615
#        184961
#        196238
#        209633
#        239969
#        259608
#        282254
#
# Disc length: 4146 seconds
#
# Revision: 0
# Processed by: cddbd v1.5.2PL0 Copyright (c) Steve Scherf et al.
# Submitted via: ExactAudioCopy v1.0b1
#
DISCID=1c103012
DTITLE=Various Artist - Audio Surf Musikmesse 2011
DYEAR=2011
DGENRE=Acid Jazz
TTITLE0=Dear Lament... - My House
TTITLE1=Black as Chalk - I Do
TTITLE2=Nicolas Sturm and Das Klingen Ensemble - Caroline
TTITLE3=Jonny Talker - Nein
TTITLE4=Kafkas Orient Bazaar - Yazar
TTITLE5=Borgenine - Moises
TTITLE6=toma - Jeden Tag
TTITLE7=Hyrax - I Never Thought
TTITLE8=Zen Zebra - Read Me to Sleep
TTITLE9=Tagespoeten - Wenn du läufst
TTITLE10=Couch Rocker Crew - Oase
TTITLE11=Cindy Ciser - In Your Eyes
TTITLE12=Slick's Kitchen - Just in Case
TTITLE13=Sugar from Soul - The Core
TTITLE14=In Morpheus' Arms - Revelation
TTITLE15=Aram Chaos - Postcard from Nowhere - Chapter 3
TTITLE16=Sebastian Arnold - Insert Coin
TTITLE17=P:HON - Two Creatures
EXTD=
EXTT0=
EXTT1=
EXTT2=
EXTT3=
EXTT4=
EXTT5=
EXTT6=
EXTT7=
EXTT8=
EXTT9=
EXTT10=
EXTT11=
EXTT12=
EXTT13=
EXTT14=
EXTT15=
EXTT16=
EXTT17=
PLAYORDER=
